<svg xmlns="http://www.w3.org/2000/svg" viewBox="0 0 620.05 621.34"><title>ico</title><g id="b70257fc-e45c-4dd4-b80a-4136943d03e6" data-name="Layer 2"><g id="b3af9452-3c61-4d84-b255-3f58ca5e2767" data-name="Layer 1"><path d="M191.3,431.15c2.86,8-1.2,182.92.71,190.1.81-.06,5.52-.09,13.05-.1,51.93-40.65,58.14-99.77,70.7-156.68,14.3-3.54,31-5.35,45.31-14.05,17.8-7.73,34.74-35.43,29.27-48.3,9.14-3.22,7.56-15.72-.81-19.59-27.1-29.71-21.15-55.3-55.47-65.64-3.93-22.06-7.62-101.71-37.5-37.55.35-51.08-44.41,23.43-49,31.82-87,57.65-48.79,108.47-157,108.4C164.29,399,114.26,266.89,262.12,190.74c1.37-8.59,32-69.33,46.13-79.45,8.83-3.27,18.87,49.45,22.43,71.09-.49,7,5.11,7,16,11,38.65,17.53,51.2,40.59,71.71,90.07,15.7,16.28,38.28,19.91,53.92,33.2,19.58,18.64-6.08,38.75-19.47,52.14-17.22,17.12-49.27,12-65.94,16.4-58,32.43,1,118.94-91.51,236.09,55.84.1,114.05.16,117.22-.26,15.86-5.31,7.09-21.77,9.2-39.22,0-41.58-.12-117.3-.14-141.11.43-4.59-2.31-11.11,5.74-13H612.63c12.35,1.53,4.77-30.11,6.74-79.7-2.32-70.08,5.9-154.39-5.74-150.25H427.39a5.76,5.76,0,0,1-5.73-5.73V5.73A5.76,5.76,0,0,0,415.93,0H197.49a5.76,5.76,0,0,0-5.73,5.73V192A5.76,5.76,0,0,1,186,197.7l-173.24,0A12.76,12.76,0,0,0,0,210.4V427.18s109.32.25,160.41.4C179.83,428.68,186.6,424.71,191.3,431.15Z" style="fill:#9f0618"/></g></g></svg>