<svg xmlns="http://www.w3.org/2000/svg" viewBox="0 0 3193.35 621.34"><title>vetpro-logo</title><g id="bfb6dd65-c3bf-4204-a6c4-a2995a0713b3" data-name="Layer 2"><g id="f45929d2-3bd6-4e59-b689-0c8bb0b7b246" data-name="Layer 1"><path d="M191.3,431.15c2.86,8-1.2,182.92.71,190.1.81-.06,5.52-.09,13.05-.1,51.93-40.65,58.14-99.77,70.7-156.68,14.3-3.54,31-5.35,45.31-14.05,17.8-7.73,34.74-35.43,29.27-48.3,9.14-3.22,7.56-15.72-.81-19.59-27.1-29.71-21.15-55.3-55.47-65.64-3.93-22.06-7.62-101.71-37.5-37.55.35-51.08-44.41,23.43-49,31.82-87,57.65-48.79,108.47-157,108.4C164.29,399,114.26,266.89,262.12,190.74c1.37-8.59,32-69.33,46.13-79.45,8.83-3.27,18.87,49.45,22.43,71.09-.49,7,5.11,7,16,11,38.65,17.53,51.2,40.59,71.71,90.07,15.7,16.28,38.28,19.91,53.92,33.2,19.58,18.64-6.08,38.75-19.47,52.14-17.22,17.12-49.27,12-65.94,16.4-58,32.43,1,118.94-91.51,236.09,55.84.1,114.05.16,117.22-.26,15.86-5.31,7.09-21.77,9.2-39.22,0-41.58-.12-117.3-.14-141.11.43-4.59-2.31-11.11,5.74-13H612.63c12.35,1.53,4.77-30.11,6.74-79.7-2.32-70.08,5.9-154.39-5.74-150.25H427.39a5.76,5.76,0,0,1-5.73-5.73V5.73A5.76,5.76,0,0,0,415.93,0H197.49a5.76,5.76,0,0,0-5.73,5.73V192A5.76,5.76,0,0,1,186,197.7l-173.24,0A12.76,12.76,0,0,0,0,210.4V427.18s109.32.25,160.41.4C179.83,428.68,186.6,424.71,191.3,431.15Z" style="fill:#9f0618"/><path d="M1147.64,71.2l-153,353H914L761.69,71.2h88.42L957.24,323.55,1066.32,71.2Z" style="fill:#373738"/><path d="M1508.87,358.4v65.83H1235.22V71.2h267.2v65.18H1316.54v76.81h163.93v63.89H1316.54V358.4Z" style="fill:#373738"/><path d="M1697.36,137.67H1584.41V71.2h307.86v66.47h-113V424.23h-82Z" style="fill:#373738"/><path d="M2140.15,71.2q46.95,0,81.32,15.49c23.23,10.32,41,25.17,53.56,44.53,12.43,19,18.72,41.63,18.72,67.77,0,25.81-6.29,48.4-18.72,67.76-12.58,19.37-30.33,34.21-53.56,44.54q-34.38,15.48-81.32,15.49h-71v97.45h-82V71.2Zm-4.52,189.1c24.52,0,42.92-5.16,55.5-15.49,12.91-10.65,19.36-26,19.36-45.82,0-19.69-6.45-34.86-19.36-45.18-12.58-10.65-31-16.14-55.5-16.14h-66.48V260.3Z" style="fill:#9f0618"/><path d="M2632.43,424.23,2564,326.13h-74.87v98.1h-82V71.2h153q47,0,81.32,15.49c23.24,10.32,41,25.17,53.57,44.53,12.43,19,18.72,41.63,18.72,67.77,0,26.3-6.46,49-19.36,68.41-12.59,19-30.34,33.4-53.57,43.24l79.38,113.59ZM2630.49,199c0-19.69-6.45-34.86-19.36-45.18-12.59-10.65-31-16.14-55.5-16.14h-66.48V260.94h66.48c24.52,0,42.91-5.32,55.5-16.13C2624,234.16,2630.49,218.83,2630.49,199Z" style="fill:#9f0618"/><path d="M2999.73,430q-54.95,0-99.39-23.23c-29.37-15.82-52.28-37.6-69.06-65.19q-25.17-41.87-25.17-94.23,0-51.55,25.17-92.94c16.78-27.91,39.69-49.85,69.06-65.83,29.68-15.81,62.76-23.88,99.39-23.88,36.46,0,69.38,8.07,98.74,23.88q43.82,24,69.06,65.83c17.1,27.59,25.82,58.57,25.82,92.94,0,34.85-8.72,66.32-25.82,94.23q-25.17,41.38-69.06,65.19Q3054.43,430,2999.73,430Zm0-69.7c20.65,0,39.37-4.68,56.15-14.2a99.51,99.51,0,0,0,40-40c9.36-17.1,14.2-36.78,14.2-58.73s-4.84-41.3-14.2-58.08a101.53,101.53,0,0,0-40-40c-16.78-9.84-35.5-14.84-56.15-14.84a112.19,112.19,0,0,0-56.8,14.84,101,101,0,0,0-39.37,40c-9.52,16.78-14.2,36.14-14.2,58.08s4.68,41.63,14.2,58.73a99,99,0,0,0,39.37,40C2960,355.66,2979.07,360.34,2999.73,360.34Z" style="fill:#9f0618"/><path d="M854.79,560.66H795.56a24.89,24.89,0,0,0,8.46,17.7c5.09,4.61,11.54,6.92,19.23,6.92A31.2,31.2,0,0,0,835.56,583a35.38,35.38,0,0,0,9.61-6.92l5.39,6.15a31,31,0,0,1-11.92,8.47,36.77,36.77,0,0,1-15.39,3.07,40.07,40.07,0,0,1-19.62-4.61,36,36,0,0,1-13.07-12.7,38.46,38.46,0,0,1-4.62-18.84,36.54,36.54,0,0,1,4.62-18.47,33.57,33.57,0,0,1,12.3-13.07,35,35,0,0,1,17.7-4.62,33.93,33.93,0,0,1,17.69,4.62,32.08,32.08,0,0,1,11.93,13.07,36.64,36.64,0,0,1,4.61,18.47Zm-34.23-30.77a24.33,24.33,0,0,0-17.31,6.54,24.86,24.86,0,0,0-7.69,16.93h50.38a26.63,26.63,0,0,0-8.07-16.93A24.37,24.37,0,0,0,820.56,529.89Z" style="fill:#373738"/><path d="M964.24,593l-22.69-29.61L919.24,593H908.47l27.69-36.54L909.62,522.2h10.77l21.16,27.69,21.54-27.69h10.38l-26.54,34.23L975,593Z" style="fill:#373738"/><path d="M1065.05,593.74a38.63,38.63,0,0,1-18.85-4.61,36,36,0,0,1-13.07-12.7,38.46,38.46,0,0,1-4.62-18.84,36.54,36.54,0,0,1,4.62-18.47,35.54,35.54,0,0,1,13.07-13.07,38.53,38.53,0,0,1,18.85-4.62,33.45,33.45,0,0,1,16.16,3.85,27.32,27.32,0,0,1,11.54,10.38l-6.93,4.62a28.05,28.05,0,0,0-9.23-7.69,26.59,26.59,0,0,0-11.54-2.7,27.51,27.51,0,0,0-13.85,3.46,24.17,24.17,0,0,0-9.61,10,28.56,28.56,0,0,0-3.46,14.23,30.6,30.6,0,0,0,3.46,14.61,24.36,24.36,0,0,0,9.61,9.62,27.41,27.41,0,0,0,13.85,3.46,25.37,25.37,0,0,0,11.54-2.69,26,26,0,0,0,9.23-7.69l6.93,4.61a29.58,29.58,0,0,1-11.54,10.77A37.46,37.46,0,0,1,1065.05,593.74Z" style="fill:#373738"/><path d="M1217.84,560.66h-59.23a24.89,24.89,0,0,0,8.46,17.7c5.09,4.61,11.54,6.92,19.23,6.92a31.2,31.2,0,0,0,12.31-2.31,35.38,35.38,0,0,0,9.61-6.92l5.39,6.15a31,31,0,0,1-11.92,8.47,36.77,36.77,0,0,1-15.39,3.07,40.07,40.07,0,0,1-19.62-4.61,35.91,35.91,0,0,1-13.07-12.7,38.46,38.46,0,0,1-4.62-18.84,36.54,36.54,0,0,1,4.62-18.47,33.57,33.57,0,0,1,12.3-13.07,35,35,0,0,1,17.7-4.62,33.93,33.93,0,0,1,17.69,4.62,32.08,32.08,0,0,1,11.93,13.07,36.64,36.64,0,0,1,4.61,18.47Zm-34.23-30.77a24.33,24.33,0,0,0-17.31,6.54,24.86,24.86,0,0,0-7.69,16.93H1209a26.63,26.63,0,0,0-8.07-16.93A24.37,24.37,0,0,0,1183.61,529.89Z" style="fill:#373738"/><path d="M1282.29,493h9.62V593h-9.62Z" style="fill:#373738"/><path d="M1424.78,560.66h-59.24a24.9,24.9,0,0,0,8.47,17.7c5.09,4.61,11.54,6.92,19.23,6.92a31.23,31.23,0,0,0,12.31-2.31,35.38,35.38,0,0,0,9.61-6.92l5.39,6.15a30.93,30.93,0,0,1-11.93,8.47,36.69,36.69,0,0,1-15.38,3.07,40.07,40.07,0,0,1-19.62-4.61,36,36,0,0,1-13.08-12.7,38.57,38.57,0,0,1-4.61-18.84,36.64,36.64,0,0,1,4.61-18.47,33.66,33.66,0,0,1,12.31-13.07,35,35,0,0,1,17.7-4.62,33.93,33.93,0,0,1,17.69,4.62,32,32,0,0,1,11.92,13.07,36.54,36.54,0,0,1,4.62,18.47Zm-34.23-30.77a24.33,24.33,0,0,0-17.31,6.54,24.92,24.92,0,0,0-7.7,16.93h50.39a26.63,26.63,0,0,0-8.07-16.93A24.37,24.37,0,0,0,1390.55,529.89ZM1404,511.43l-13.46-11.54-13.47,11.54h-8.84l17.31-16.92h10l17.31,16.92Z" style="fill:#373738"/><path d="M1525,521.43c8.94,0,16,2.69,21.16,8.08,5.38,5.19,8.07,12.6,8.07,22.31V593h-9.61V553c0-7.4-1.83-13.08-5.39-16.92s-8.84-5.77-15.77-5.77c-7.69,0-13.75,2.31-18.08,6.92-4.42,4.42-6.54,10.58-6.54,18.46V593h-9.61V522.2h8.85v13.08a27.81,27.81,0,0,1,11.15-10A32.46,32.46,0,0,1,1525,521.43Z" style="fill:#373738"/><path d="M1654.27,593.74a38.63,38.63,0,0,1-18.85-4.61,36,36,0,0,1-13.08-12.7,38.57,38.57,0,0,1-4.61-18.84,36.64,36.64,0,0,1,4.61-18.47,35.57,35.57,0,0,1,13.08-13.07,38.53,38.53,0,0,1,18.85-4.62,33.41,33.41,0,0,1,16.15,3.85A27.26,27.26,0,0,1,1682,535.66l-6.92,4.62a28.15,28.15,0,0,0-9.23-7.69,26.63,26.63,0,0,0-11.54-2.7,27.51,27.51,0,0,0-13.85,3.46,24.11,24.11,0,0,0-9.61,10,28.57,28.57,0,0,0-3.47,14.23,30.61,30.61,0,0,0,3.47,14.61,24.3,24.3,0,0,0,9.61,9.62,27.41,27.41,0,0,0,13.85,3.46,25.4,25.4,0,0,0,11.54-2.69,26.11,26.11,0,0,0,9.23-7.69l6.92,4.61a29.51,29.51,0,0,1-11.54,10.77A37.41,37.41,0,0,1,1654.27,593.74Z" style="fill:#373738"/><path d="M1745.51,522.2h9.62V593h-9.62Zm4.62-15.39a6.37,6.37,0,0,1-5-1.92,7.26,7.26,0,0,1-1.92-5,6.25,6.25,0,0,1,1.92-4.62,6.08,6.08,0,0,1,5-2.3,7.06,7.06,0,0,1,5,1.92,6.64,6.64,0,0,1,1.92,4.62,8.2,8.2,0,0,1-1.92,5.38A6.65,6.65,0,0,1,1750.13,506.81Z" style="fill:#373738"/><path d="M1851.08,521.43c9.23,0,16.25,2.5,21.15,7.31,5.1,4.61,7.7,11.44,7.7,20.38V593h-9.23V581.82a23.09,23.09,0,0,1-9.62,8.85c-4.14,2.11-9.14,3.07-15,3.07-7.69,0-14-1.92-18.85-5.77a18.6,18.6,0,0,1-6.92-15,17.45,17.45,0,0,1,6.54-14.23q6.48-5.78,20.77-5.77h22.69v-4.23c0-6.15-1.83-10.77-5.38-13.85-3.37-3.27-8.27-5-14.62-5a36.65,36.65,0,0,0-13.08,2.31,38.09,38.09,0,0,0-10.77,6.15l-4.23-7.3a35.31,35.31,0,0,1,12.69-6.93A50,50,0,0,1,1851.08,521.43Zm-3.46,64.62a26.38,26.38,0,0,0,13.84-3.46,24.62,24.62,0,0,0,8.85-10.77V560.28H1848c-12.11,0-18.08,4.13-18.08,12.31,0,4.42,1.54,7.69,4.62,10S1841.94,586.05,1847.62,586.05Z" style="fill:#373738"/><path d="M2089.81,522.2,2058.27,593h-9.62l-31.54-70.77h10l26.54,60.39,26.93-60.39Z" style="fill:#373738"/><path d="M2209.77,560.66h-59.23a24.89,24.89,0,0,0,8.46,17.7c5.1,4.61,11.54,6.92,19.23,6.92a31.16,31.16,0,0,0,12.31-2.31,35.58,35.58,0,0,0,9.62-6.92l5.38,6.15a30.82,30.82,0,0,1-11.92,8.47,36.77,36.77,0,0,1-15.39,3.07,40,40,0,0,1-19.61-4.61,35.94,35.94,0,0,1-13.08-12.7,38.46,38.46,0,0,1-4.62-18.84,36.54,36.54,0,0,1,4.62-18.47,33.59,33.59,0,0,1,12.31-13.07,34.91,34.91,0,0,1,17.69-4.62,33.9,33.9,0,0,1,17.69,4.62,32.08,32.08,0,0,1,11.93,13.07,36.54,36.54,0,0,1,4.61,18.47Zm-34.23-30.77a24.37,24.37,0,0,0-17.31,6.54,24.91,24.91,0,0,0-7.69,16.93h50.39a26.59,26.59,0,0,0-8.08-16.93A24.37,24.37,0,0,0,2175.54,529.89Z" style="fill:#373738"/><path d="M2311.53,588.74a21.49,21.49,0,0,1-6.92,3.85,28.28,28.28,0,0,1-8.08,1.15c-6.73,0-11.83-1.73-15.38-5.38s-5.39-8.66-5.39-15.39V530.28h-12.69V522.2h12.69V506.81h9.62V522.2h21.54v8.08h-21.54v42.31c0,4.13,1,7.31,3.07,9.61,2,2.12,5.1,3.08,9.24,3.08a17.68,17.68,0,0,0,5.38-.77,18.64,18.64,0,0,0,5-2.69Z" style="fill:#373738"/><path d="M2435.13,560.66H2375.9a24.89,24.89,0,0,0,8.46,17.7c5.1,4.61,11.54,6.92,19.23,6.92A31.16,31.16,0,0,0,2415.9,583a35.58,35.58,0,0,0,9.62-6.92l5.38,6.15a30.82,30.82,0,0,1-11.92,8.47,36.77,36.77,0,0,1-15.39,3.07,40,40,0,0,1-19.61-4.61,35.94,35.94,0,0,1-13.08-12.7,38.46,38.46,0,0,1-4.62-18.84,36.54,36.54,0,0,1,4.62-18.47,33.59,33.59,0,0,1,12.31-13.07,34.91,34.91,0,0,1,17.69-4.62,33.9,33.9,0,0,1,17.69,4.62,32.08,32.08,0,0,1,11.93,13.07,36.54,36.54,0,0,1,4.61,18.47Zm-34.23-30.77a24.37,24.37,0,0,0-17.31,6.54,24.91,24.91,0,0,0-7.69,16.93h50.39a26.59,26.59,0,0,0-8.08-16.93A24.37,24.37,0,0,0,2400.9,529.89Z" style="fill:#373738"/><path d="M2508.43,536.05a22.73,22.73,0,0,1,10-10.77,34.2,34.2,0,0,1,16.54-3.85v9.62l-2.31-.39q-11.25,0-17.31,6.93c-4.13,4.61-6.15,11-6.15,19.23V593h-9.62V522.2h8.85Z" style="fill:#373738"/><path d="M2598.28,522.2h9.61V593h-9.61Zm4.61-15.39a6.38,6.38,0,0,1-5-1.92,7.31,7.31,0,0,1-1.92-5,6.29,6.29,0,0,1,1.92-4.62,6.1,6.1,0,0,1,5-2.3,7,7,0,0,1,5,1.92,6.61,6.61,0,0,1,1.93,4.62,8.16,8.16,0,0,1-1.93,5.38A6.64,6.64,0,0,1,2602.89,506.81Z" style="fill:#373738"/><path d="M2715,521.43c8.94,0,16,2.69,21.15,8.08,5.39,5.19,8.08,12.6,8.08,22.31V593h-9.62V553c0-7.4-1.82-13.08-5.38-16.92s-8.85-5.77-15.77-5.77c-7.69,0-13.75,2.31-18.08,6.92-4.42,4.42-6.54,10.58-6.54,18.46V593h-9.61V522.2h8.84v13.08a27.9,27.9,0,0,1,11.16-10A32.44,32.44,0,0,1,2715,521.43Z" style="fill:#373738"/><path d="M2839.65,521.43c9.23,0,16.25,2.5,21.16,7.31,5.09,4.61,7.69,11.44,7.69,20.38V593h-9.23V581.82a23.09,23.09,0,0,1-9.62,8.85c-4.13,2.11-9.13,3.07-15,3.07-7.69,0-14-1.92-18.85-5.77a18.6,18.6,0,0,1-6.92-15,17.45,17.45,0,0,1,6.54-14.23q6.48-5.78,20.77-5.77h22.69v-4.23c0-6.15-1.82-10.77-5.38-13.85-3.37-3.27-8.27-5-14.62-5a36.69,36.69,0,0,0-13.08,2.31,38.09,38.09,0,0,0-10.77,6.15l-4.23-7.3a35.27,35.27,0,0,1,12.7-6.93A49.92,49.92,0,0,1,2839.65,521.43Zm-3.46,64.62a26.44,26.44,0,0,0,13.85-3.46,24.67,24.67,0,0,0,8.84-10.77V560.28h-22.31c-12.11,0-18.08,4.13-18.08,12.31,0,4.42,1.54,7.69,4.62,10S2830.51,586.05,2836.19,586.05Zm13.46-91.54h12.69l-21.54,16.92h-9.61Z" style="fill:#373738"/><path d="M2948,536.05a22.73,22.73,0,0,1,10-10.77,34.2,34.2,0,0,1,16.54-3.85v9.62l-2.31-.39q-11.25,0-17.31,6.93c-4.13,4.61-6.15,11-6.15,19.23V593h-9.62V522.2H2948Z" style="fill:#373738"/><path d="M3037.84,522.2h9.61V593h-9.61Zm4.61-15.39a6.38,6.38,0,0,1-5-1.92,7.31,7.31,0,0,1-1.92-5,6.29,6.29,0,0,1,1.92-4.62,6.1,6.1,0,0,1,5-2.3,7,7,0,0,1,5,1.92,6.65,6.65,0,0,1,1.93,4.62,8.21,8.21,0,0,1-1.93,5.38A6.64,6.64,0,0,1,3042.45,506.81Z" style="fill:#373738"/><path d="M3143.4,521.43c9.23,0,16.25,2.5,21.16,7.31,5.09,4.61,7.69,11.44,7.69,20.38V593H3163V581.82a23.09,23.09,0,0,1-9.62,8.85c-4.13,2.11-9.13,3.07-15,3.07-7.69,0-14-1.92-18.85-5.77a18.6,18.6,0,0,1-6.92-15,17.48,17.48,0,0,1,6.54-14.23q6.49-5.78,20.77-5.77h22.69v-4.23c0-6.15-1.82-10.77-5.38-13.85-3.37-3.27-8.27-5-14.62-5a36.69,36.69,0,0,0-13.08,2.31,38.09,38.09,0,0,0-10.77,6.15l-4.23-7.3a35.27,35.27,0,0,1,12.7-6.93A49.92,49.92,0,0,1,3143.4,521.43Zm-3.46,64.62a26.41,26.41,0,0,0,13.85-3.46,24.67,24.67,0,0,0,8.84-10.77V560.28h-22.31c-12.11,0-18.07,4.13-18.07,12.31,0,4.42,1.54,7.69,4.61,10S3134.27,586.05,3139.94,586.05Z" style="fill:#373738"/></g></g></svg>