<svg xmlns="http://www.w3.org/2000/svg" width="36.652" height="39.096" viewBox="0 0 36.652 39.096">
    <path id="Path_107" data-name="Path 107" d="M17.855,20.569a10.392,10.392,0,0,1-2.423-3.151.737.737,0,0,1,0-.761,14.307,14.307,0,0,1,.935-1.108c.312-.381.553-.727.45-1.04l-1.558-4.051c-.139-.277-.553-.312-1.038-.347a6.11,6.11,0,0,0-1.177.07,5.625,5.625,0,0,0-2.283,3.464c-.381,2.943,2.283,6.856,4.949,9.28,2.666,2.459,6.784,4.779,9.691,4.121,1.35-.312,3.081-1.869,3.219-2.6a3.438,3.438,0,0,0-.034-1.178c-.034-.484-.138-.831-.417-.969l-3.53-1.629c-.313-.173-.623-.034-.935.347-.38.519-.555.727-1,1.282-.242.312-.415.519-.692.553a2.061,2.061,0,0,1-.8-.1,11.157,11.157,0,0,1-3.357-2.182ZM6.227,33l2.007-5.091A14.649,14.649,0,1,1,19.344,33a14.4,14.4,0,0,1-8.652-2.839ZM3.768,28.015,1,39.1l9.9-4.5A18.322,18.322,0,1,0,1,18.318,18.445,18.445,0,0,0,3.768,28.015Z" transform="translate(-1)" fill="#fff"/>
</svg>
